# xmcd CD database file
#
# Track frame offsets:
#	187
#	16497
#	39190
#	60372
#	81222
#	102185
#	120612
#	140205
#	164410
#	186642
#
# Disc length: 2962 seconds
#
# Revision: 0
# Processed by: cddbd v1.5PL3 Copyright (c) Steve Scherf et al.
# Submitted via: CDex 1.50
#
DISCID=850b900a
DTITLE=Wink - Voce
DYEAR=1994
DGENRE=JPop
TTITLE0=それはKissで始まった
TTITLE1=Honey bee
TTITLE2=シェリー モン シェリ
TTITLE3=それでもいいの
TTITLE4=あなたがドアを開ける夜
TTITLE5=PLEASE PLEASE ME
TTITLE6=Sunny Day
TTITLE7=裸足のマリオネット
TTITLE8=永遠に…
TTITLE9=特別な一日
EXTD=YEAR: 1994/12/01
EXTT0=
EXTT1=
EXTT2=
EXTT3=
EXTT4=
EXTT5=
EXTT6=
EXTT7=
EXTT8=
EXTT9=
PLAYORDER=
